<?xml version="1.0" standalone="no"?>
<!DOCTYPE svg PUBLIC "-//W3C//DTD SVG 20010904//EN"
 "http://www.w3.org/TR/2001/REC-SVG-20010904/DTD/svg10.dtd">
<svg version="1.0" xmlns="http://www.w3.org/2000/svg"
 width="270.000000pt" height="270.000000pt" viewBox="0 0 270.000000 270.000000"
 preserveAspectRatio="xMidYMid meet">
<metadata>
Created by potrace 1.14, written by Peter Selinger 2001-2017
</metadata>
<g transform="translate(0.000000,270.000000) scale(0.100000,-0.100000)"
fill="#000000" stroke="none">
<path d="M1110 2686 c-46 -24 -90 -35 -91 -23 0 7 -4 2 -9 -10 -5 -13 -13 -23
-17 -23 -9 0 -7 -215 2 -230 3 -5 -1 -10 -9 -10 -9 0 -16 -5 -16 -11 0 -6 7
-8 17 -5 13 5 11 0 -6 -18 -14 -15 -21 -26 -18 -26 4 0 -1 -9 -10 -20 -10 -11
-23 -20 -31 -20 -7 0 -15 -7 -19 -16 -5 -13 -7 -13 -14 -2 -5 7 -9 8 -9 2 0
-7 -15 -9 -37 -7 -21 2 -46 4 -56 4 -9 0 -15 4 -12 10 4 5 -1 9 -9 9 -9 0 -16
5 -16 11 0 5 -5 7 -11 3 -7 -4 -10 -1 -7 7 2 7 -5 22 -16 32 -12 10 -14 15 -6
11 11 -5 10 -1 -3 13 -14 16 -15 22 -5 26 10 4 10 7 -1 15 -12 9 -12 13 -2 26
11 12 11 16 1 16 -9 0 -9 4 1 17 10 11 10 14 2 9 -8 -4 -13 -2 -13 4 0 7 -7 5
-16 -4 -8 -9 -24 -21 -35 -26 -10 -6 -19 -18 -19 -28 0 -14 -2 -14 -9 -3 -7
11 -10 9 -16 -8 -3 -12 -11 -19 -16 -16 -5 4 -9 2 -9 -4 0 -5 -16 -26 -35 -45
-19 -20 -35 -41 -35 -46 0 -6 -7 -10 -16 -10 -10 0 -14 -6 -10 -15 5 -14 -6
-20 -28 -16 -5 1 -3 -6 5 -15 9 -12 9 -15 2 -10 -7 4 -13 2 -13 -4 0 -6 -9
-20 -20 -32 -11 -12 -20 -28 -20 -35 0 -7 -4 -13 -9 -13 -5 0 -12 -7 -15 -16
-4 -10 -2 -13 7 -8 6 4 2 -3 -10 -15 -14 -13 -20 -27 -16 -38 4 -11 3 -14 -5
-9 -11 6 -17 -12 -13 -36 0 -5 -4 -8 -10 -8 -5 0 -7 -4 -4 -10 3 -5 1 -10 -6
-10 -7 0 -10 -3 -7 -6 4 -3 0 -20 -7 -39 -8 -18 -11 -35 -8 -39 4 -3 1 -6 -6
-6 -8 0 -11 -7 -7 -15 3 -8 1 -15 -3 -15 -5 0 -8 -8 -7 -17 2 -10 -2 -21 -8
-25 -7 -5 -7 -8 3 -8 10 0 10 -6 -4 -26 -14 -22 -15 -28 -4 -35 9 -5 10 -9 2
-9 -6 0 -10 -13 -9 -30 1 -16 -3 -30 -8 -30 -6 0 -4 -5 4 -10 9 -6 11 -10 3
-10 -7 0 -10 -6 -7 -13 3 -8 -2 -20 -11 -27 -11 -9 -15 -9 -15 -1 0 9 -5 9
-21 1 -11 -7 -23 -9 -27 -6 -3 3 1 6 8 6 7 0 10 3 7 6 -4 4 -13 1 -22 -6 -8
-7 -15 -8 -15 -2 0 5 -7 12 -14 15 -10 4 -13 1 -9 -9 4 -12 -1 -14 -27 -9 -20
4 -29 2 -25 -5 3 -5 0 -10 -8 -10 -8 0 -26 -11 -41 -25 -20 -18 -26 -34 -26
-65 0 -44 24 -90 46 -90 8 0 11 -6 8 -14 -5 -13 64 -15 511 -16 285 0 521 -3
526 -5 4 -3 10 1 12 7 4 10 6 10 6 0 1 -7 5 -11 9 -8 9 5 161 8 202 3 14 -1
31 4 38 13 8 8 11 10 8 4 -7 -14 62 -25 71 -11 3 5 9 3 14 -4 5 -8 9 -9 9 -3
0 7 15 9 45 4 26 -4 48 -3 52 3 3 5 9 3 14 -4 5 -8 9 -9 9 -3 0 7 15 9 45 4
26 -4 48 -3 52 3 3 5 9 3 14 -4 5 -8 9 -9 9 -3 0 7 15 9 45 4 26 -4 48 -3 52
3 3 5 9 3 14 -4 5 -8 9 -9 9 -3 0 7 15 9 45 4 26 -4 48 -3 52 3 3 5 9 3 14 -4
5 -8 9 -9 9 -3 0 7 15 9 45 4 26 -4 48 -3 52 3 3 5 9 3 14 -4 5 -8 9 -9 9 -3
0 7 15 9 45 4 26 -4 48 -3 52 3 3 5 9 3 14 -4 5 -8 9 -9 9 -3 0 7 15 9 45 4
26 -4 48 -3 52 3 3 5 9 3 14 -4 5 -8 9 -9 9 -3 0 7 15 9 45 4 26 -4 48 -3 52
3 3 5 9 3 14 -4 5 -8 9 -9 9 -3 0 7 15 9 45 4 26 -4 48 -3 52 3 3 5 9 3 14 -4
5 -9 9 -10 9 -3 0 8 11 9 36 4 29 -7 34 -6 30 6 -4 12 -2 12 14 4 14 -8 20 -8
20 0 0 6 5 8 12 4 7 -4 8 -3 4 4 -7 12 29 54 38 45 3 -4 6 16 6 44 0 33 -5 55
-15 63 -8 7 -12 16 -9 21 3 5 -2 6 -10 3 -11 -4 -16 0 -16 10 0 9 -8 16 -19
16 -11 0 -23 5 -27 11 -4 8 -9 7 -15 -2 -8 -12 -11 -12 -18 0 -8 12 -12 12
-25 2 -13 -11 -16 -11 -16 0 0 11 -2 11 -10 -1 -9 -13 -10 -13 -10 0 0 13 -1
13 -10 0 -8 -12 -10 -12 -10 -1 0 9 -7 11 -21 8 -12 -3 -19 -3 -16 0 3 3 2 16
-4 30 -5 13 -5 22 -1 19 5 -3 6 8 4 24 -3 19 -8 27 -16 23 -8 -5 -8 -3 0 8 11
15 11 25 0 51 -4 9 -5 21 -2 27 4 5 1 13 -5 16 -5 4 -8 13 -5 21 3 8 1 14 -5
14 -6 0 -9 6 -6 14 3 7 -2 24 -10 37 -13 17 -13 20 -2 14 11 -7 12 -6 2 7 -7
8 -9 19 -5 23 4 5 2 5 -4 2 -7 -4 -15 0 -18 9 -4 10 -2 13 7 7 6 -4 4 5 -6 20
-9 15 -14 27 -10 27 4 0 -2 7 -13 16 -10 8 -13 13 -7 9 9 -4 11 -1 7 9 -3 9
-11 16 -17 16 -6 0 -7 3 -4 7 4 3 -1 12 -11 20 -9 8 -12 12 -5 9 8 -5 8 0 0
19 -7 14 -18 25 -25 25 -7 0 -10 5 -7 11 4 5 -1 18 -12 27 -10 9 -19 24 -21
32 -2 8 -8 17 -13 18 -5 2 -6 9 -3 14 4 7 2 8 -5 4 -7 -5 -15 4 -22 23 -6 17
-16 29 -22 28 -7 -1 -11 4 -9 11 1 8 -2 11 -8 7 -7 -4 -14 2 -17 14 -3 11 -9
18 -14 15 -9 -5 -13 10 -10 30 1 5 -5 4 -13 -4 -13 -10 -16 -10 -16 2 0 14
-34 48 -48 48 -4 0 -20 14 -35 31 -15 17 -27 26 -27 19 0 -7 -6 -5 -16 4 -8 9
-17 16 -19 16 -6 0 0 -24 9 -39 7 -10 5 -12 -3 -6 -10 6 -11 3 -1 -15 7 -13 8
-20 2 -16 -12 7 -10 -32 2 -52 4 -7 1 -15 -8 -18 -9 -3 -13 -10 -10 -16 3 -5
-3 -18 -15 -29 -12 -11 -21 -24 -21 -28 0 -5 -9 -11 -21 -14 -14 -4 -18 -10
-13 -19 6 -10 4 -10 -9 1 -9 7 -17 9 -17 4 0 -11 -54 -8 -72 3 -7 5 -8 2 -4
-7 4 -8 1 -6 -7 3 -10 13 -16 15 -25 6 -8 -8 -12 -8 -12 -2 0 6 -11 24 -24 39
-14 16 -24 33 -23 39 1 6 -2 10 -8 9 -5 -1 -10 10 -10 23 0 13 4 24 8 24 5 0
6 4 3 8 -3 5 -6 59 -7 122 -1 64 -6 118 -12 125 -6 6 -21 10 -34 7 -12 -2 -29
3 -38 12 -19 19 -84 22 -86 4 -1 -7 -1 -23 -1 -36 1 -15 -3 -20 -11 -16 -9 5
-9 3 1 -7 6 -7 12 -17 12 -22 0 -4 -6 -5 -12 -1 -10 5 -10 4 -1 -6 9 -9 9 -19
2 -33 -6 -11 -7 -17 -2 -14 4 3 8 -14 9 -38 0 -28 -4 -42 -10 -38 -6 3 -5 0 2
-8 6 -7 12 -17 12 -22 0 -4 -6 -5 -12 -1 -10 5 -10 4 -1 -6 9 -9 9 -19 2 -33
-7 -11 -7 -17 -1 -13 5 3 10 -5 10 -19 0 -14 -5 -22 -10 -19 -6 4 -6 -1 0 -13
6 -11 7 -25 2 -33 -5 -8 -6 -18 -3 -23 10 -17 10 -166 0 -160 -6 4 -8 0 -4
-10 4 -10 1 -17 -5 -17 -6 0 -9 -3 -6 -6 9 -8 -49 -67 -60 -60 -13 8 -34 -18
-24 -30 4 -4 0 -3 -8 2 -8 6 -27 10 -42 7 -14 -2 -29 1 -33 7 -3 5 -16 10 -27
10 -12 0 -19 3 -16 6 7 6 -34 52 -42 48 -3 -1 -6 17 -5 41 0 24 -3 41 -7 39
-5 -3 -8 -1 -8 5 0 5 5 13 10 16 6 4 7 12 3 18 -12 19 -14 49 -3 42 5 -3 8 0
5 7 -11 30 -12 78 -1 78 6 0 2 7 -8 15 -11 8 -15 15 -8 15 7 0 10 17 8 50 -3
35 0 48 8 43 6 -3 6 0 -1 8 -15 15 -17 33 -4 24 6 -3 6 6 1 24 -4 16 -6 32 -3
35 3 3 0 12 -7 21 -11 13 -10 14 6 8 15 -5 17 -4 8 8 -6 8 -9 26 -8 42 2 16
-2 27 -9 27 -9 0 -8 3 1 8 7 5 10 16 6 25 -8 21 -58 22 -94 3z"/>
<path d="M1064 1331 c3 -5 -1 -11 -9 -15 -8 -3 -15 0 -15 6 0 7 -5 6 -15 -2
-12 -10 -15 -10 -15 1 0 9 -3 10 -8 4 -4 -5 -18 -12 -32 -13 -14 -2 -26 -8
-28 -13 -2 -5 -12 -9 -22 -9 -10 0 -21 -7 -24 -16 -3 -8 -10 -13 -15 -9 -12 7
-73 -29 -64 -38 6 -6 -11 -11 -29 -8 -8 1 -12 -16 -8 -34 1 -5 -1 -7 -5 -3 -4
3 -32 -19 -63 -50 -31 -31 -60 -55 -63 -54 -4 1 -6 -6 -5 -16 0 -9 -5 -16 -12
-14 -6 1 -11 -1 -11 -5 4 -23 -2 -43 -10 -38 -12 7 -33 -29 -23 -40 4 -5 2 -5
-5 -1 -7 4 -19 -4 -29 -19 -9 -13 -20 -22 -25 -19 -5 3 -9 -2 -9 -12 0 -14 -2
-15 -17 -3 -11 10 -14 10 -9 2 4 -8 1 -13 -8 -13 -9 0 -16 -6 -16 -12 0 -9 -4
-8 -10 2 -6 9 -10 10 -10 3 0 -13 -106 -13 -127 0 -8 5 -13 3 -13 -5 -1 -9 -4
-8 -13 3 -7 9 -20 15 -29 13 -10 -1 -16 3 -15 9 1 6 -8 11 -20 12 -12 0 -25 4
-30 9 -5 6 -2 6 7 1 13 -8 13 -7 1 8 -10 13 -17 15 -27 6 -16 -13 -19 -23 -4
-14 9 6 11 1 14 -37 1 -19 20 -37 30 -30 5 3 6 -3 2 -13 -5 -14 0 -25 16 -38
13 -10 16 -15 9 -11 -9 4 -5 -6 8 -25 14 -20 29 -30 38 -27 8 3 12 2 8 -3 -7
-12 5 -41 17 -41 13 0 38 -26 31 -33 -3 -4 4 -5 15 -2 13 2 21 -1 19 -8 -1 -6
8 -13 21 -15 12 -2 20 -8 17 -13 -5 -8 16 -14 38 -10 4 0 7 -4 7 -9 0 -6 9
-10 20 -10 11 0 20 -5 20 -11 0 -6 9 -8 21 -4 13 5 19 3 15 -3 -3 -5 3 -12 14
-15 13 -3 18 -1 13 6 -4 8 -2 8 9 0 8 -7 18 -10 21 -6 4 3 7 1 7 -5 0 -7 5
-12 11 -12 5 0 7 5 3 11 -4 7 3 6 17 -2 29 -15 179 -19 179 -4 0 6 5 3 10 -5
9 -13 10 -13 10 0 0 13 1 13 10 0 7 -11 12 -12 21 -3 6 6 18 9 27 6 11 -5 13
-3 7 8 -8 12 -6 12 8 0 9 -7 17 -9 17 -4 0 6 12 10 28 9 15 0 26 4 25 10 -1 5
12 9 29 8 36 -3 60 5 53 16 -3 5 3 7 12 5 10 -1 24 3 32 9 12 9 13 8 7 -4 -6
-12 -4 -11 6 1 7 9 19 14 26 12 6 -3 12 0 12 6 0 5 9 8 20 6 11 -2 18 0 15 4
-6 11 23 23 36 15 5 -3 9 2 9 11 0 9 4 14 9 10 5 -3 16 1 24 9 8 8 17 12 21 9
3 -4 6 -1 6 6 0 7 5 9 10 6 6 -4 17 -2 24 5 19 15 64 2 76 -21 6 -10 17 -16
25 -13 9 4 15 0 15 -7 0 -11 3 -11 10 1 8 13 10 12 10 -3 0 -10 5 -15 11 -12
6 4 22 -4 36 -16 15 -13 23 -18 19 -11 -4 6 -2 12 3 12 6 0 11 -5 11 -11 0 -6
7 -8 15 -5 9 3 18 0 21 -7 2 -7 14 -14 26 -14 12 -1 24 -6 27 -10 6 -8 13 -9
69 -15 12 -1 22 -5 22 -8 0 -3 10 -6 23 -7 12 -1 42 -5 67 -9 25 -4 61 -8 80
-8 19 -1 41 -5 49 -10 10 -7 12 -6 6 4 -6 9 -2 10 15 5 13 -4 20 -3 17 2 -3 5
7 7 24 5 16 -2 37 2 46 9 12 10 14 10 9 1 -4 -6 -2 -12 3 -12 6 0 11 6 11 13
0 8 4 7 10 -3 5 -8 10 -10 10 -5 0 6 10 12 22 12 13 1 24 6 26 11 2 6 13 7 24
4 17 -4 20 -2 15 11 -5 13 -2 15 18 7 17 -7 25 -5 29 6 3 8 10 12 16 9 5 -3
10 -1 10 4 0 6 5 11 11 11 7 0 18 8 26 17 9 12 12 13 8 3 -4 -8 3 -4 15 10 12
14 19 18 15 10 -4 -8 6 0 22 18 16 17 34 32 41 32 7 0 11 4 8 9 -3 5 1 11 9
15 8 3 15 12 15 20 0 7 7 16 15 20 9 3 12 12 8 22 -5 14 -3 16 11 11 10 -4 15
-3 11 3 -3 6 -1 10 6 10 7 0 9 3 6 7 -4 3 0 17 9 30 13 20 13 27 2 41 -7 9 -8
13 -2 9 7 -4 14 0 18 8 6 17 -19 21 -29 5 -4 -6 -11 -7 -17 -4 -6 4 -8 2 -5
-3 4 -6 -1 -17 -10 -24 -11 -10 -14 -10 -9 -2 5 9 2 11 -8 7 -9 -3 -14 -9 -11
-14 2 -4 -7 -5 -20 -2 -14 2 -25 0 -25 -5 0 -5 -15 -9 -32 -8 -18 2 -39 -2
-45 -7 -9 -7 -13 -7 -13 0 0 5 -14 9 -31 8 -16 -1 -32 1 -35 6 -3 5 -10 5 -16
2 -7 -5 -8 -2 -3 6 6 10 4 12 -9 7 -9 -4 -15 -3 -13 1 2 4 -4 15 -14 24 -12
12 -19 13 -23 5 -2 -7 -5 -4 -5 5 -1 10 -10 22 -21 28 -11 6 -20 17 -20 25 0
8 -5 15 -11 15 -5 0 -8 4 -5 8 3 5 -4 15 -15 22 -10 8 -19 18 -19 23 0 13 -27
37 -34 30 -3 -4 -6 3 -6 15 0 11 -5 24 -12 28 -7 5 -9 2 -4 -7 4 -8 0 -5 -9 6
-9 11 -21 19 -26 18 -5 -2 -8 3 -6 10 1 6 -4 11 -11 9 -8 -1 -11 2 -8 7 4 5 2
12 -4 16 -6 4 -7 12 -3 18 4 7 -1 6 -11 -2 -15 -13 -18 -12 -23 8 -3 14 -11
20 -20 17 -8 -3 -12 -2 -9 2 2 4 -9 14 -25 21 -16 7 -26 17 -23 23 4 5 -4 5
-16 -2 -13 -7 -20 -8 -16 -1 4 5 -3 15 -15 21 -17 10 -20 9 -13 -2 4 -7 -2 -5
-13 5 -11 10 -27 15 -37 11 -9 -3 -16 -1 -16 5 0 9 -5 9 -22 0 -18 -10 -20 -9
-14 6 5 15 4 16 -9 5 -8 -7 -15 -9 -15 -4 0 4 -5 3 -12 -4 -8 -8 -17 -8 -31
-1 -14 8 -18 8 -13 0 7 -11 -5 -15 -31 -12 -7 1 -13 -3 -13 -10 0 -6 -8 -9
-20 -6 -11 3 -18 0 -17 -7 1 -6 -4 -10 -10 -8 -7 1 -13 -2 -13 -8 0 -5 -7 -10
-15 -10 -8 0 -12 -6 -9 -15 4 -10 0 -13 -16 -10 -18 3 -20 2 -10 -10 9 -11 7
-12 -12 -8 -18 4 -20 3 -8 -6 13 -9 13 -11 -3 -11 -10 0 -20 -7 -23 -15 -4 -8
-18 -15 -32 -15 -14 0 -23 3 -19 6 7 7 -58 74 -72 74 -5 0 -12 8 -15 17 -6 15
-8 15 -16 3 -8 -13 -10 -13 -10 1 0 17 -43 34 -60 24 -5 -3 -12 0 -16 6 -5 8
-3 9 6 4 9 -5 11 -4 6 4 -4 6 -18 9 -32 7 -13 -3 -24 -1 -24 4 0 4 -7 11 -16
14 -8 3 -13 2 -10 -3z"/>
<path d="M360 1315 c-7 -8 -9 -15 -6 -15 4 0 0 -7 -8 -16 -9 -8 -13 -21 -9
-27 4 -7 6 -23 4 -37 -7 -50 -6 -75 2 -93 5 -12 4 -24 -5 -35 -7 -9 -8 -13 -2
-9 16 9 25 -43 12 -67 -7 -12 -7 -16 0 -12 5 3 12 -1 15 -8 3 -8 1 -17 -6 -20
-7 -2 -4 -5 6 -5 10 -1 15 -6 12 -11 -11 -18 15 -41 34 -31 9 5 24 7 34 5 12
-1 17 2 14 11 -4 9 1 11 16 8 16 -4 18 -2 8 5 -7 5 -10 15 -7 21 4 6 2 11 -5
11 -8 0 -7 5 2 17 8 9 9 14 3 10 -7 -4 -15 0 -18 9 -9 24 -7 31 4 14 8 -12 9
-11 7 5 -2 11 -7 28 -11 37 -4 9 -5 21 -2 27 3 5 0 12 -6 14 -7 3 -8 6 -3 6 7
1 9 32 7 82 -2 57 1 79 8 74 7 -4 6 1 -1 13 -7 12 -17 18 -21 16 -4 -3 -8 1
-8 8 0 9 -3 9 -10 -2 -8 -12 -13 -13 -29 -3 -15 10 -22 9 -31 -2z"/>
<path d="M2300 1321 c0 -8 -7 -11 -20 -8 -10 3 -27 -2 -37 -10 -10 -8 -13 -12
-7 -9 9 4 12 -25 12 -104 0 -77 -3 -110 -11 -110 -8 0 -7 -4 2 -9 9 -6 10 -11
2 -15 -8 -5 -8 -13 0 -28 9 -16 8 -19 -2 -13 -9 6 -11 3 -6 -8 3 -10 2 -17 -2
-17 -5 0 -8 -8 -6 -17 2 -10 4 -21 4 -24 1 -4 8 -10 17 -13 9 -4 13 -2 8 5 -3
6 6 3 22 -7 19 -13 25 -14 19 -5 -6 11 -4 13 8 8 10 -3 17 -2 17 4 0 6 5 7 11
3 8 -4 8 0 0 15 -10 17 -9 20 4 15 13 -5 15 -1 10 25 -4 21 -1 31 7 31 10 0
10 2 0 9 -11 7 -11 9 2 14 9 4 13 13 10 22 -3 8 -11 12 -18 9 -6 -3 -3 1 7 9
13 11 15 16 5 19 -11 4 -10 8 1 21 7 10 10 17 5 17 -5 0 -9 11 -9 25 0 14 3
25 6 25 3 0 6 7 6 15 0 8 -5 15 -10 15 -6 0 -7 3 -4 7 4 3 2 12 -4 19 -6 7 -6
14 0 18 15 10 1 44 -17 41 -10 -1 -20 3 -24 9 -5 7 -8 7 -8 -3z"/>
<path d="M610 499 c-12 -8 -10 -10 10 -5 24 5 24 5 5 -10 l-20 -16 20 4 c12 2
19 -2 18 -9 -2 -7 3 -13 10 -13 7 0 18 -9 25 -20 7 -11 18 -20 26 -20 7 0 21
-11 32 -24 10 -14 21 -23 26 -20 4 3 8 1 8 -4 0 -5 13 -15 30 -22 16 -7 27
-17 23 -23 -4 -6 0 -8 10 -4 10 3 17 2 17 -4 0 -6 5 -7 10 -4 6 3 10 1 10 -4
0 -6 7 -11 15 -11 8 0 15 -4 15 -10 0 -5 7 -7 15 -4 8 4 15 1 15 -5 0 -6 7
-11 16 -11 9 0 12 -5 8 -12 -5 -9 -3 -9 9 1 14 11 18 11 22 -1 3 -7 13 -15 23
-16 40 -4 57 -10 55 -19 -1 -5 12 -8 28 -7 16 1 29 -2 29 -7 0 -6 9 -5 20 1
16 8 22 8 26 -3 3 -9 16 -13 35 -11 16 2 29 -1 29 -6 0 -6 5 -10 11 -10 5 0 7
5 3 12 -5 7 -3 8 7 2 19 -12 42 -11 51 1 5 6 8 5 8 -2 0 -7 5 -13 11 -13 5 0
7 6 4 12 -4 7 1 4 9 -6 11 -13 16 -15 16 -6 0 7 3 10 7 7 3 -4 13 -1 21 6 13
9 14 9 8 0 -5 -9 0 -13 13 -13 12 0 21 6 21 13 0 9 3 8 9 -2 7 -11 9 -11 14 0
4 11 6 11 6 1 1 -8 6 -10 14 -5 11 7 50 13 90 14 9 0 15 4 12 8 -2 5 7 7 20 5
14 -1 25 2 25 7 0 6 5 7 10 4 6 -4 17 -1 25 5 8 6 19 9 25 5 5 -3 10 -1 10 5
0 6 5 8 10 5 6 -3 10 0 10 7 0 10 3 9 10 -2 8 -12 10 -12 16 3 3 9 10 15 14
12 5 -3 14 0 22 7 7 7 22 14 33 16 11 2 25 10 32 18 6 8 21 16 33 17 12 1 26
10 31 19 6 10 14 16 18 13 5 -3 11 2 15 10 3 8 12 15 20 15 9 0 20 9 26 20 6
11 17 20 25 20 8 0 15 7 15 15 0 8 7 15 15 15 8 0 19 9 25 20 6 11 17 20 24
20 7 0 13 6 13 14 0 10 -12 13 -43 10 -24 -1 -49 -6 -55 -10 -6 -3 -15 0 -20
7 -7 12 -10 12 -21 0 -11 -11 -11 -13 1 -6 10 6 12 4 6 -4 -5 -9 -10 -10 -18
-2 -7 7 -17 3 -34 -15 -13 -14 -28 -22 -35 -18 -6 4 -9 3 -6 -2 6 -9 -15 -34
-29 -35 -21 -3 -60 -22 -78 -38 -26 -23 -58 -35 -50 -18 4 6 0 4 -9 -7 -8 -10
-19 -15 -25 -11 -6 3 -11 2 -11 -4 0 -5 -18 -12 -40 -16 -22 -4 -40 -12 -40
-18 0 -7 -5 -5 -10 3 -6 9 -10 11 -10 3 0 -7 -7 -10 -17 -6 -10 4 -14 2 -10
-4 9 -14 -25 -12 -35 2 -5 6 -8 5 -8 -4 0 -7 -6 -11 -14 -8 -7 3 -19 0 -26 -6
-10 -9 -11 -9 -5 2 6 10 4 12 -5 6 -18 -11 -169 -15 -176 -4 -2 4 -16 4 -29
-1 -20 -8 -23 -7 -18 8 6 14 4 15 -8 5 -12 -10 -18 -10 -29 0 -10 9 -11 9 -6
0 4 -8 -2 -7 -21 2 -18 10 -29 11 -32 4 -1 -5 -9 -2 -17 8 -11 14 -15 15 -22
5 -7 -11 -10 -10 -16 3 -3 9 -10 13 -16 10 -5 -3 -10 0 -10 7 0 11 -2 10 -9 0
-6 -11 -10 -10 -15 3 -3 10 -12 15 -21 11 -8 -3 -15 -1 -15 4 0 6 -9 10 -21
10 -11 0 -17 5 -14 10 3 6 -3 10 -14 10 -12 0 -21 4 -21 10 0 5 -3 9 -7 9 -22
-4 -33 2 -27 13 5 8 2 9 -9 5 -12 -4 -17 -1 -17 11 0 14 -2 14 -9 3 -7 -11
-10 -9 -16 8 -4 14 -12 20 -21 17 -7 -3 -13 0 -11 6 1 7 -7 14 -18 16 -11 2
-23 9 -27 16 -5 7 -8 7 -8 0 0 -14 -30 -14 -30 0 0 7 -3 7 -8 1 -11 -15 -32
-17 -32 -2 0 8 -4 7 -10 -3 -6 -10 -10 -11 -10 -2 0 15 -20 15 -40 1z m1185
-109 c-3 -5 -12 -10 -18 -10 -7 0 -6 4 3 10 19 12 23 12 15 0z"/>
</g>
</svg>
